<?xml version="1.0" encoding="utf-8"?>
<!-- Generator: Adobe Illustrator 16.0.0, SVG Export Plug-In . SVG Version: 6.00 Build 0)  -->
<!DOCTYPE svg PUBLIC "-//W3C//DTD SVG 1.1//EN" "http://www.w3.org/Graphics/SVG/1.1/DTD/svg11.dtd">
<svg version="1.1" id="Layer_1" xmlns="http://www.w3.org/2000/svg" xmlns:xlink="http://www.w3.org/1999/xlink" x="0px" y="0px"
	 width="373.732px" height="89.566px" viewBox="0 0 373.732 89.566" enable-background="new 0 0 373.732 89.566"
	 xml:space="preserve">
<g id="Layer_1_1_" display="none">
	<g display="inline">
		<g>
			<path display="none" fill="none" d="M186.875,89.546c-61.912,0-123.824-0.002-185.736,0.02c-0.841,0-1.14-0.096-1.139-1.067
				C0.033,59.343,0.033,30.186,0,1.03c0-0.91,0.242-1.024,1.063-1.023C124.927,0.027,248.791,0.027,372.655,0
				c0.961,0,1.07,0.285,1.07,1.134c-0.022,29.116-0.024,58.232,0.007,87.35c0.001,0.937-0.251,1.085-1.121,1.084
				C310.699,89.544,248.787,89.546,186.875,89.546z M122.167,35.594c-0.05-0.236-0.096-0.5-0.399-0.516
				c-0.758-0.039-2.657,1.668-2.577,2.397c0.12,1.09-0.92,1.305-1.378,1.946c-0.214,0.302-0.707,0.084-0.926-0.235
				c-0.518-0.755-1.281-1.275-1.768-2.088c-0.74-1.237-1.695-2.521-3.173-2.726c-0.868-0.12-1.969-0.741-2.897,0.307
				c-0.478,0.538-0.007,1.226-0.521,1.628c-0.636,0.498-0.699,1.067-0.44,1.806c0.186,0.531,0.034,1.104-0.153,1.645
				c-0.195,0.565,0.692,2.008,1.22,1.859c0.457-0.128,1.743,0.298,1.148-1.116c-0.173-0.412,0.424-0.713,0.736-0.65
				c0.509,0.101,1.069,0.047,1.507,0.21c0.702,0.262,1.147,0.908,1.341,1.682c0.137,0.547-0.767,0.459-0.573,0.675
				c0.654,0.727,0.267,1.76,0.712,2.375c0.426,0.587,0.438,1.045,0.341,1.631c-0.12,0.732-0.091,1.305,0.6,1.893
				c0.997,0.849,1.836,1.912,2.688,2.901c1.139,1.325,3.016,1.839,4.391,0.729c0.243-0.196,0.624-0.458,0.767-0.041
				c0.423,1.229,0.402,1.275,1.6,1.098c0.919-0.137,2.147,0.566,2.607-0.927c0.031-0.1,0.439-0.043,0.543-0.167
				c0.638-0.76,2.44-0.019,2.301-1.789c-0.012-0.153,0.351-0.348,0.475-0.2c0.601,0.713,0.925,0.003,1.376-0.195
				c0.674-0.299,0.753-1.697,2.069-0.94c0.531,0.305,2.637-2.002,2.717-2.813c0.024-0.241-0.043-0.513,0.281-0.562
				c0.623-0.096,0.636-0.08,0.795-0.631c0.09-0.313,0.151-0.67,0.495-0.768c0.559-0.157,0.139,0.675,0.72,0.65
				c-0.295-0.557,0.66-0.443,0.479-0.919c-0.534-1.405,0.597-0.657,0.896-0.625c0.817,0.085,0.861,0.839,0.945,1.459
				c0.167,1.222,0.666,2.157,1.858,2.687c0.326,0.145,0.691,0.359,0.893,0.746c0.981,1.886,1.946,2.204,3.931,1.552
				c0.862-0.283,1.567-0.807,2.366-1.177c1.309-0.604,2.981-0.563,3.763-2.149c0.144-0.29,0.672-0.188,0.759,0.192
				c0.284,1.243,1.311,1.971,1.966,2.95c0.872,1.306,1.974,2.402,3.231,3.351c0.448,0.338,0.732,0.406,1.201-0.054
				c0.74-0.726,1.311-0.417,1.684,0.622c0.157,0.439,0.439,0.88,1.264,0.65c1.626-0.45,2.578-1.776,3.869-2.644
				c0.759-0.509,1.927-0.852,2.124-1.765c0.372-1.716,1.863-2.72,2.376-4.285c0.156-0.475,0.855-0.52,0.809-0.897
				c-0.125-1.037,1.111-1.338,1.111-2.291c0-0.229,0.588-0.148,0.557-0.077c-0.427,0.98,1.143,1.65,0.294,2.848
				c-0.43,0.607-0.505,1.877,0.373,2.708c0.51,0.482,1.172,1.038,1.367,1.581c0.548,1.534,1.761,2.301,2.987,3.03
				c0.599,0.354,1.442,0.458,2.162-0.048c0.84-0.59,1.703-1.14,3.08-0.239c-0.907-1.516,0.061-1.478,0.746-1.636
				c1.446-0.335,1.786-0.832,1.456-2.213c-0.037-0.152-0.001-0.247,0.114-0.276c0.614-0.156,0.681-0.764,0.93-1.183
				c1.039-1.746,2.229-3.019,4.509-2.056c0.57,0.241,1.385,0.082,1.338,1.075c-0.002,0.071,0.172,0.217,0.266,0.217
				c1.423,0,2.791,0.796,4.292-0.006c0.959-0.512,1.915-1.948,3.292-0.433c0.167-0.62-0.096-1.316,0.641-1.406
				c1.103-0.135,1.875-0.996,2.924-1.257c0.429-0.106,0.81-0.312,1.266-0.12c0.434,0.183,0.89,0.238,1.161-0.247
				c0.249-0.445,0.385-0.931-0.039-1.426c-0.334,0.398-0.351,1.017-1.118,0.971c0.424-0.862,0.532-1.663,1.836-1.852
				c1.12-0.163,1.396,0.161,1.43,1.025c0.02,0.486,0.09,0.961,0.478,1.148c0.799,0.384,1.215,1.086,1.763,1.702
				c0.499,0.561,1.129,1.015,1.744,1.458c0.527,0.38,2.652,0.216,2.93-0.285c0.381-0.688,0.99-0.934,1.623-1.213
				c0.617-0.273,0.981-0.752,1.268-1.366c0.338-0.728,1.203-1.368,1.734-1.385c1.703-0.055,2.463-1.105,3.158-2.334
				c0.189-0.335,0.383-0.482,0.741-0.449c0.461,0.042,0.478,0.358,0.403,0.698c-0.088,0.409,0.188,0.673,0.348,0.986
				c0.273,0.537,0.223,1.007-0.322,1.348c-0.992,0.621-0.794,1.756-0.634,2.489c0.153,0.709,0.116,1.242-0.185,1.773
				c-0.396,0.698-0.599,1.376-0.361,2.165c0.053,0.176,0.074,0.463-0.026,0.567c-1.21,1.259,0.056,1.145,0.716,1.219
				c0.541,0.062,0.981,0.307,1.465,0.479c0.615,0.222,1.015,0.236,1.131-0.633c0.402-2.979,2.209-5.357,3.543-7.937
				c0.092-0.175,0.234-0.327,0.373-0.468c0.869-0.868,2.029-1.406,2.764-2.429c0.634-0.882,2.152-0.409,2.568-1.946
				c0.173-0.635,1.773-1.058,2.899-0.642c0.466,0.172,0.958,0.079,1.265-0.164c1.062-0.84,1.382,0.077,1.567,0.72
				c0.233,0.809,0.328,1.637,0.943,2.282c0.208,0.219,0.206,0.528,0.14,0.801c-0.382,1.556,0.518,2.426,1.707,3.062
				c0.498,0.266,0.777,0.592,1.018,1.083c1.162,2.383,2.844,3.883,5.756,3.613c0.746-0.07,1.217-0.651,1.771-0.653
				c1.327-0.005,2.131-0.771,2.959-1.573c0.538-0.52,0.989-1.479,1.561-1.546c1.218-0.139,1.318-1.538,2.373-1.711
				c0.152-0.025,0.267-0.255,0.1-0.378c-0.927-0.689-0.146-1.842-0.96-2.707c0.979,0.046,1.665,0.021,2.229-0.702
				c0.308-0.396,0.985-0.117,1.33,0.324c0.371,0.475,0.729,0.986,0.758,1.623c0.057,1.165,0.638,1.75,1.815,1.71
				c0.548-0.02,0.845,0.432,0.646,0.753c-0.696,1.116,0.217,1.397,0.843,1.775c1.098,0.66,2.185,1.347,3.601,0.795
				c1.512-0.59,3.219,0.243,4.768-0.681c0.688-0.411,1.398-0.675,1.751-1.442c0.226-0.491,0.639-0.785,1.135-0.704
				c0.894,0.146,1.712-0.39,2.581-0.084c0.062-0.68-0.559-0.767-0.838-1.125c0.716-0.431,1.832,1.284,2.134-0.514
				c0.005-0.025,0.164-0.066,0.222-0.039c0.608,0.306,1.049-0.195,1.321-0.487c0.437-0.467,0.812-0.587,1.431-0.571
				c0.357,0.01,1.164,0.08,1.146-0.556c-0.048-1.698,1.258-1.911,2.323-1.961c2.078-0.1,3.775-1.137,5.576-1.907
				c0.453-0.194,1.098-0.083,1.371-0.587c0.549-1.016,1.305-1.564,2.5-1.326c0.035,0.007,0.08-0.015,0.114-0.034
				c0.474-0.268,1.236-0.358,1.269-0.956c0.045-0.789-0.844-0.306-1.205-0.617c-0.049-0.042-0.051-0.141-0.1-0.284
				c0.523-0.237,1.094-0.766,1.62-0.48c1.397,0.755,2.115-0.303,2.896-1.004c0.425-0.38,0.785-0.564,1.33-0.618
				c1.654-0.163,3.117-0.875,4.443-1.824c0.677-0.483,1.316-1.48,2.051-1.297c1.139,0.285,1.704-0.662,2.616-0.769
				c0.311-0.037,0.977-0.406,0.914-0.936c-0.059-0.506-0.67-0.216-1.062-0.384c0.204-0.305,0.391-0.583,0.612-0.916
				c0.479,0.562,0.988,1.106,1.73,0.63c1.013-0.649,1.935-1.496,3.293-0.938c0.137,0.057,0.492-0.059,0.521-0.159
				c0.221-0.747,0.046-1.532,1.479-0.989c0.764,0.29,2.159-0.125,3.234-0.461c0.483-0.151,0.943-0.181,0.874-0.876
				c-0.028-0.28,1.343-0.981,1.619-0.873c1.303,0.514,1.315,0.514,1.355-0.827c0.01-0.323,0.122-0.571,0.377-0.691
				c0.332-0.157,0.351,0.229,0.487,0.386c0.657,0.758,1.792,1.052,2.371,0.655c0.942-0.647,1.914-0.697,2.909-0.888
				c1.475-0.28,3.035,0.47,4.471-0.397c0.305-0.185,0.507-0.001,0.521,0.387c0.017,0.393,0.351,0.404,0.623,0.367
				c0.379-0.053,0.445-0.257,0.222-0.587c-0.117-0.172,0.047-0.296,0.2-0.354c0.193-0.07,0.319,0.047,0.335,0.222
				c0.079,0.896,0.539,0.698,1.17,0.537c0.555-0.143,0.94-0.43,1.397-0.719c1.485-0.938,3.109-0.097,4.67-0.205
				c0.346-0.023,0.465,0.396,0.355,0.638c-0.72,1.598,0.194,1.436,1.239,1.207c0.223-0.048,0.475,0.062,0.712,0.064
				c0.665,0.004,1.916,0.755,1.265-0.979c-0.062-0.168,0.229-0.426-0.044-0.715c-0.226,0.067-0.479,0.176-0.745,0.219
				c-0.738,0.119-2.366-1.043-2.3-1.623c0.07-0.616-0.301-1.227-0.863-1.197c-1.178,0.062-2.297-0.305-3.462-0.372
				c-1.526-0.088-3.036-0.38-4.581-0.188c-0.387,0.048-1.062,0.339-0.829-0.613c0.081-0.332-0.267-0.301-0.513-0.237
				c-0.869,0.224-1.646,0.021-2.435-0.397c-0.717-0.381-1.511-0.466-2.255,0.036c0.763,1.569,0.253,2.608-1.285,2.634
				c-0.121-0.476,0.528-0.716,0.316-1.38c-1.076,0.562-2.297-0.339-3.122-0.065c-1.518,0.503-2.921-0.108-4.341,0.167
				c-0.229,0.044-0.436,0.198-0.647,0.308c-1.586,0.806-3.174,1.607-4.755,2.422c-0.59,0.303-1.438,0.133-1.707,1.047
				c-0.094,0.319-0.539,0.278-0.853,0.126c-1.074-0.524-1.638,0.025-2.048,0.947c-0.444,0.995-1.241,1.328-2.295,1.21
				c-0.465-0.053-0.926-0.106-1.396,0.135c-1.085,0.555-2.171,1.138-3.318,1.53c-0.95,0.325-1.416,1.324-2.341,1.558
				c-2.881,0.723-5.05,2.75-7.606,4.059c-0.239,0.122-0.395,0.385-0.729,0.323c-0.745-0.135-1.366,0.277-1.862,0.682
				c-1.705,1.383-3.891,1.896-5.632,3.229c-0.571,0.437-1.013,1.162-1.582,1.348c-1.755,0.573-3.354,1.371-4.839,2.445
				c-0.148,0.108-0.423,0.045-0.568,0.155c-0.381,0.281-0.842,0.396-1.248,0.627c-1.1,0.621-2.021,1.606-3.271,1.892
				c-1.392,0.316-2.388,1.374-3.823,1.73c-0.882,0.219-1.854,0.519-2.787,0.745c-1.656,0.401-2.727-0.84-3.968-1.562
				c-0.28-0.164-0.315-0.535-0.284-0.873c0.202-2.252-0.134-4.49-0.105-6.815c-0.948,0.37-1.689-0.124-2.484-0.301
				c-0.597-0.132-1.186-0.477-1.822-0.008c-1.316,0.965-1.615,2.593-2.545,3.804c-0.104,0.135-0.063,0.275,0.065,0.422
				c0.604,0.68,0.155,0.951-0.472,1.062c-0.379,0.067-0.678,0.211-0.936,0.48c-1.49,1.554-2.99,3.098-4.47,4.661
				c-0.782,0.826-1.722,1.621-2.812,1.577c-1.811-0.07-3.205-0.957-3.947-2.798c-0.576-1.433-0.492-3.013-1.248-4.408
				c-0.575-1.062-0.824-2.297-1.309-3.417c-0.115-0.265-0.123-1.472-0.967-0.428c-0.121,0.15-0.287-0.026-0.354-0.177
				c-0.428-0.99-1.67-0.877-2.26-1.668c-0.16-0.213-0.324,0.053-0.453,0.198c-0.815,0.903-1.857,0.766-2.863,0.523
				c-0.312-0.075-0.53-0.291-0.833,0c-1.063,1.021-2.521,1.203-3.81,1.734c-0.396,0.163-0.725,0.244-0.808,0.729
				c-0.108,0.644-0.604,0.641-1.147,0.77c-1.31,0.311-1.42-1.019-2.188-1.415c0.533-0.646-1.109-1.521,0.24-2.138
				c0.238-0.107-0.072-0.495-0.375-0.566c-0.807-0.191-1.564,0.005-2.082,0.617c-0.94,1.111-2.459,1.788-2.663,3.483
				c-0.024,0.208-0.397,0.548-0.593,0.536c-1.248-0.083-1.752,1.048-2.354,1.678c-1.972,2.061-4.429,3.359-6.792,4.805
				c-1.179,0.721-2.376-0.13-2.314-1.5c0.096-2.14,0.135-4.275,0.812-6.354c0.283-0.869,0.12-1.767-0.919-2.195
				c-0.745-0.309-0.856-1.068-1.13-1.692c-0.104-0.236,0.012-0.586-0.369-0.641c-0.26-0.036-0.473,0.121-0.609,0.32
				c-0.685,0.974-1.303,1.918-1.399,3.215c-0.089,1.181-0.037,2.592-1.146,3.402c-1.681,1.229-3.158,2.65-4.562,4.172
				c-0.338,0.365-0.775,0.764-1.309,0.792c-2.121,0.112-4.093,0.97-6.197,1.195c-0.971,0.104-1.711-0.294-2.473-0.656
				c-0.625-0.296-0.332-0.971-0.314-1.52c0.009-0.262-0.133-0.539-0.25-0.789c-0.389-0.828-0.975-1.538-1.389-2.362
				c-0.31-0.614-1.151-0.779-1.789-0.674c-0.648,0.106-0.619,0.826-0.674,1.386c-0.145,1.493-0.832,2.829-1.271,4.236
				c-0.353,1.129-1.74,1.511-2.177,2.44c-0.902,1.925-2.796,2.682-4.166,4.027c-1.206,1.186-2.575,0.551-2.856-1.114
				c-0.268-1.584-0.098-3.174,0.149-4.721c0.288-1.803,0.583-3.605,0.878-5.408c0.076-0.464-0.508-0.915,0.011-1.313
				c0.682-0.525,0.701-1.324,0.832-2.043c0.18-0.993,0.554-1.842,1.071-2.725c0.924-1.576,2.367-3.024,1.91-5.136
				c-0.068-0.314,0.104-0.45,0.342-0.66c0.569-0.503,1.34-1.145,1.006-1.915c-0.239-0.549-0.192-0.842,0.044-1.265
				c0.362-0.646,0.068-0.689-0.536-0.697c-0.609-0.008-0.954,0.663-1.554,0.497c-0.613-0.17-1.11-0.368-1.353,0.561
				c-0.143,0.547-1.234,0.597-1.149,1.338c0.114,0.991-0.513,1.521-0.994,2.196c-0.377,0.529-1.229,0.937-0.991,1.658
				c0.256,0.774-0.065,1.188-0.463,1.707c-0.64,0.832-0.936,1.907-1.839,2.562c-0.168,0.121-0.388,0.414-0.234,0.63
				c0.686,0.959-0.07,1.451-0.677,1.818c-0.679,0.411-1.119,0.996-1.537,1.596c-0.846,1.213-2.091,2.223-1.986,3.951
				c0.022,0.379-0.127,0.965-0.805,1c-0.75,0.04-0.986,0.638-1.218,1.233c-0.144,0.368-0.122,0.769-0.368,1.126
				c-0.624,0.907-1.544,1.572-1.971,2.659c-0.197,0.501-1.057,0.679-1.118,1.334c-0.106,1.158-0.973,1.517-1.837,1.729
				c-0.66,0.162-1.274,0.403-1.905,0.625c-1.431,0.505-3.819-0.417-4.177-1.676c-0.807-2.836-0.691-5.637,0.534-8.353
				c0.201-0.445-0.498-2.757-0.729-2.62c-0.929,0.552-1.242-0.364-1.774-0.667c-0.476-0.271-0.698-0.283-0.878,0.263
				c-0.308,0.933-0.965,1.771-0.703,2.854c0.094,0.385-0.133,0.648-0.419,0.921c-1.053,1-2.39,1.784-2.699,3.382
				c-0.037,0.189-0.192,0.251-0.362,0.242c-0.628-0.034-0.861,0.464-1.216,0.84c-1.397,1.479-3.052,2.295-5.15,1.854
				c-0.396-0.083-0.851-0.141-0.905-0.637c-0.111-1.029-0.16-2.133-0.049-3.088c0.147-1.27-0.007-2.213-0.759-3.177
				c-0.425-0.543-1.04-0.923-1.225-1.721c-0.061-0.26-1.186-0.6-1.551-0.4c-1.28,0.697-2.529,1.469-3.275,2.872
				c-0.436,0.817-1.028,1.734-1.688,2.248c-1.512,1.174-2.739,2.661-4.457,3.642c-1.788,1.021-3.574,2.073-5.334,3.157
				c-1.211,0.746-2.576,0.146-3.857,0.263c-1.98,0.182-4.532-1.498-4.692-3.413c-0.124-1.472-0.273-2.929-0.601-4.369
				c-0.11-0.48-0.032-0.869,0.528-1.026c1.306-0.365,2.594-0.811,3.916-1.097c1.023-0.222,1.301-0.669,0.827-1.59
				c2.413,0.121,3.86-1.847,5.646-2.897c1.805-1.063,2.902-3.236,4.55-4.702c0.377-0.335,0.52-0.786,0.521-1.294
				c0-0.174,0.081-0.523,0.302-0.381c0.952,0.608,0.613-0.345,0.667-0.593c0.082-0.376,0.056-0.729,0.293-1.109
				c0.756-1.214,2.064-2.308,1.125-4.012c-0.042-0.077,0.005-0.258,0.073-0.333c0.602-0.667,0.284-1.448,0.28-2.186
				c-0.004-0.815-0.125-1.564,0.317-2.409c0.521-0.996,0.151-2.509-0.387-3.12c-0.844-0.959-1.4-2.587-3.137-2.557
				c-0.123,0.002-0.273-0.148-0.369-0.263c-0.608-0.733-1.618-0.646-2.372-1.276c-0.99-0.829-2.117,1.02-3.369,0.401
				c-0.013-0.007-0.079,0.046-0.082,0.076c-0.116,0.992-1.084,1.021-1.688,1.308c-0.862,0.407-1.817,1.021-2.775,0.811
				c-1.101-0.241-1.452,0.124-1.358,1.08c0.075,0.762-0.272,0.834-0.834,0.695c-0.781-0.192-1.368-0.011-2.034,0.518
				c-0.836,0.664-0.021-0.545-0.459-0.498c-0.31,0.21-0.647,0.419-0.963,0.655c-0.986,0.741-1.97,1.475-2.491,2.667
				c-0.217,0.498-0.055,0.813,0.383,0.632c0.877-0.361,1.502,0.278,2.383,0.281c-0.818,0.801-1.614,0.949-2.583,0.748
				c-1.25-0.26-3.356,0.984-3.376,2.119c-0.015,0.912-0.513,1.128-1.081,1.458c-0.263,0.153-0.635,0.153-0.729,0.549
				c-0.308,1.3-0.871,2.435-1.991,3.253c-0.269,0.197-0.515,0.57-0.565,0.896c-0.143,0.913-0.767,1.552-1.372,2.042
				c-0.97,0.783-1.441,1.733-1.766,2.877c-0.143,0.503-0.262,1.436-1.247,0.792c-0.2-0.13-0.486-0.086-0.452,0.138
				c0.144,0.942-0.631,1.095-1.124,1.578c-0.778,0.762-1.839,1.415-1.879,2.716c-0.007,0.225-0.102,0.373-0.319,0.448
				c-0.949,0.332-1.357,1.178-1.842,1.948c-0.507,0.806-0.734,1.764-1.708,2.3c-0.451,0.248-1.117,0.661-1.195,1.271
				c-0.234,1.834-1.892,2.639-2.893,3.833c-1.247,1.49-2.468,3.08-3.998,4.358c-0.523,0.438-0.483,1.753-1.682,0.889
				c-0.024-0.017-0.166,0.074-0.163,0.082c0.438,1.17-0.811,0.972-1.222,1.374c-1.669,1.64-3.183,3.405-4.737,5.145
				c-0.655,0.73-1.741,0.863-2.369,1.856c-0.838,1.325-2.601,1.792-3.513,3.198c-0.394,0.608-1.08,0.991-1.341,1.783
				c-0.053,0.159-0.188,0.938-0.775,0.942c-0.491,0.003-1.44-0.646-0.859,0.715c0.122,0.283-0.353,0.341-0.627,0.37
				c-0.307,0.034-0.698-0.142-0.897,0.183c-0.907,1.473-3.206,1.273-3.782,3.158c-0.033,0.106-0.445,0.078-0.67,0.148
				c-0.797,0.249-1.33,0.886-1.9,1.424c-0.519,0.49,0.786,0.565,0.341,1.206c-2.069-0.308-3.844,0.254-5.102,2.097
				c-0.167,0.243-0.493,0.511-0.761,0.527c-0.843,0.054-1.45,0.642-2.184,0.859c-1.158,0.346-1.88,1.445-3.245,1.508
				c-1.226,0.056-2.45-0.044-3.668,0.054c-1.974,0.158-2.563-0.302-2.705-2.166c-0.014-0.187,0.009-0.415-0.287-0.481
				c-0.305,0.369-0.476,0.938-1.149,0.839c-0.601-0.09-0.591-0.549-0.67-0.98c-0.072-0.393-0.302-0.669-0.724-0.674
				c-0.465-0.006-0.614,0.354-0.638,0.726c-0.031,0.48-0.067,0.515-0.616,0.376c-1.503-0.383-1.954,0.898-2.618,1.865
				c-0.483,0.703,0.197,0.618,0.417,0.929c1.142,1.607,3.02,1.875,4.622,2.202c1.844,0.376,3.84-0.28,5.78,0.151
				c1.614,0.36,3.12-0.376,4.674-0.626c1.07-0.172,2.024-0.594,2.946-1.173c1.215-0.763,2.273-1.946,3.955-1.636
				c0.348,0.062,0.727-0.099,0.984-0.37c1.134-1.2,2.951-1.373,3.939-2.997c0.484-0.795,1.7-1.596,2.981-1.897
				c1.728-0.406,2.733-1.688,2.77-3.219c0.58,1.104,0.955,0.791,1.58,0.15c0.44-0.452,0.911-0.955,1.383-1.392
				c1.039-0.958,2.621-1.243,3.295-2.546c0.5-0.967,1.196-1.613,2.104-2.13c0.31-0.176,0.569-0.492,0.521-0.89
				c-0.124-1.036,0.554-1.114,1.282-1.075c0.819,0.044,1.335-0.246,1.662-1.039c0.539-1.308,2.195-1.643,2.716-2.995
				c0.008-0.021,0.079-0.009,0.113-0.026c1.197-0.643,2.294-1.333,2.565-2.857c0.082-0.461,0.586-0.903,1.143-0.922
				c0.719-0.023,0.929-0.44,1.114-1.024c0.325-1.025,0.854-1.877,2.03-2.143c0.69-0.156,1.102-0.732,1.224-1.361
				c0.115-0.593,0.508-0.96,0.889-1.198c1.523-0.954,2.284-2.366,2.777-4.018c0.072-0.242-0.03-0.803,0.557-0.748
				c0.713,0.067,1.097-0.462,1.385-0.942c0.39-0.648,1.376-0.9,1.253-1.879c1.32,0.377,0.886-0.879,1.268-1.371
				c0.514-0.66,0.523-1.698,1.6-1.956c0.338-0.08,0.665-0.465,0.875-0.789c1.681-2.583,3.58-5.005,5.431-7.463
				c2.024-2.688,3.694-5.641,6.291-7.896c2.11-1.833,3.296-4.574,6.099-5.801c1.606-0.704,2.991-1.883,4.676-2.59
				c3.243-1.359,6.309,0.413,6.122,3.903c-0.071,1.316,0.529,2.671-0.253,4c-0.29,0.492,0.521,1.079,0.465,1.789
				c-0.068,0.868-1.115,0.371-1.287,1.144c-0.31,1.387-1.794,2.135-2.106,3.564c-0.027,0.125-0.228,0.213-0.349,0.317
				c-1.103,0.953-1.821,2.328-3.238,2.938c-0.126,0.056-0.303,0.26-0.28,0.354c0.389,1.634-1.16,1.559-1.827,1.641
				C122.799,34.258,122.423,34.747,122.167,35.594z"/>
		</g>
	</g>
</g>
<g id="Layer_2">
	<path fill="#C3C3C3" d="M122.179,38.174c-0.586-0.856-0.045-1.72-0.012-2.58c0.256-0.847,0.632-1.336,1.697-1.467
		c0.667-0.082,2.216-0.007,1.827-1.641c-0.022-0.093,0.154-0.298,0.28-0.354c1.417-0.61,2.135-1.986,3.238-2.938
		c0.121-0.104,0.322-0.192,0.349-0.317c0.312-1.43,1.797-2.178,2.106-3.564c0.172-0.771,1.219-0.275,1.287-1.144
		c0.056-0.71-0.754-1.297-0.465-1.789c0.782-1.329,0.183-2.684,0.253-4c0.187-3.489-2.879-5.263-6.122-3.903
		c-1.685,0.707-3.069,1.886-4.676,2.59c-2.802,1.227-3.988,3.968-6.099,5.801c-2.597,2.256-4.267,5.208-6.291,7.897
		c-1.851,2.458-3.75,4.88-5.431,7.462c-0.211,0.323-0.537,0.709-0.875,0.79c-1.076,0.257-1.086,1.294-1.6,1.956
		c-0.382,0.491,0.052,1.749-1.268,1.37c0.123,0.979-0.864,1.23-1.253,1.88c-0.288,0.479-0.671,1.01-1.385,0.941
		c-0.587-0.055-0.484,0.506-0.557,0.748c-0.494,1.65-1.254,3.062-2.777,4.019c-0.38,0.237-0.774,0.604-0.889,1.197
		c-0.122,0.629-0.533,1.205-1.224,1.361c-1.177,0.266-1.706,1.116-2.03,2.143c-0.185,0.584-0.395,1.001-1.114,1.024
		c-0.556,0.019-1.061,0.461-1.143,0.922c-0.271,1.524-1.368,2.216-2.565,2.857c-0.034,0.019-0.105,0.007-0.113,0.026
		c-0.521,1.354-2.178,1.688-2.716,2.995c-0.327,0.793-0.843,1.083-1.662,1.039c-0.728-0.039-1.406,0.039-1.282,1.075
		c0.048,0.396-0.212,0.714-0.521,0.89c-0.909,0.517-1.604,1.163-2.104,2.13c-0.674,1.303-2.256,1.589-3.295,2.547
		c-0.472,0.436-0.943,0.938-1.383,1.391c-0.625,0.641-1,0.954-1.58-0.15c-0.037,1.53-1.042,2.812-2.77,3.22
		c-1.281,0.302-2.498,1.103-2.981,1.896c-0.989,1.624-2.806,1.797-3.939,2.997c-0.257,0.272-0.636,0.434-0.984,0.37
		c-1.682-0.312-2.74,0.873-3.955,1.636c-0.921,0.579-1.875,1.001-2.946,1.173c-1.554,0.25-3.06,0.986-4.674,0.626
		c-1.94-0.433-3.936,0.225-5.78-0.151c-1.602-0.327-3.48-0.595-4.622-2.202c-0.22-0.311-0.901-0.226-0.417-0.928
		c0.664-0.968,1.115-2.248,2.618-1.866c0.549,0.139,0.585,0.104,0.616-0.376c0.024-0.372,0.173-0.73,0.638-0.726
		c0.421,0.005,0.651,0.281,0.724,0.675c0.079,0.432,0.069,0.891,0.67,0.979c0.674,0.1,0.845-0.47,1.149-0.839
		c0.296,0.067,0.272,0.296,0.287,0.481c0.142,1.864,0.731,2.324,2.705,2.166c1.219-0.098,2.442,0.003,3.668-0.054
		c1.365-0.062,2.087-1.162,3.245-1.508c0.734-0.219,1.341-0.807,2.184-0.859c0.268-0.018,0.595-0.283,0.761-0.527
		c1.258-1.843,3.033-2.403,5.102-2.097c0.445-0.641-0.86-0.716-0.341-1.206c0.57-0.537,1.103-1.175,1.9-1.424
		c0.225-0.069,0.637-0.042,0.67-0.148c0.576-1.885,2.875-1.687,3.782-3.158c0.199-0.323,0.59-0.147,0.897-0.182
		c0.274-0.03,0.749-0.088,0.627-0.371c-0.581-1.359,0.368-0.711,0.859-0.715c0.586-0.004,0.722-0.783,0.775-0.942
		c0.261-0.792,0.947-1.175,1.341-1.783c0.912-1.406,2.674-1.873,3.513-3.198c0.628-0.993,1.714-1.126,2.369-1.856
		c1.555-1.738,3.068-3.505,4.737-5.145c0.412-0.402,1.66-0.204,1.222-1.374c-0.002-0.008,0.139-0.099,0.163-0.082
		c1.199,0.864,1.159-0.45,1.682-0.889c1.53-1.278,2.75-2.868,3.998-4.358c1-1.194,2.658-1.999,2.893-3.833
		c0.078-0.611,0.744-1.024,1.195-1.271c0.974-0.537,1.201-1.495,1.708-2.3c0.485-0.771,0.894-1.616,1.842-1.948
		c0.217-0.076,0.312-0.223,0.319-0.448c0.04-1.301,1.101-1.955,1.879-2.716c0.493-0.483,1.267-0.636,1.124-1.578
		c-0.034-0.224,0.252-0.268,0.452-0.138c0.985,0.644,1.104-0.289,1.247-0.792c0.325-1.144,0.796-2.094,1.766-2.877
		c0.605-0.49,1.229-1.129,1.372-2.042c0.051-0.325,0.296-0.698,0.565-0.896c1.121-0.818,1.684-1.953,1.991-3.253
		c0.094-0.396,0.466-0.396,0.729-0.549c0.568-0.33,1.065-0.546,1.081-1.458c0.02-1.135,2.126-2.379,3.376-2.119
		c0.969,0.202,1.765,0.054,2.583-0.748c-0.881-0.003-1.506-0.643-2.383-0.28c-0.438,0.181-0.6-0.135-0.383-0.633
		c0.521-1.192,1.505-1.926,2.491-2.667c0.316-0.236,0.653-0.445,0.963-0.654c0.438-0.049-0.377,1.161,0.459,0.498
		c0.667-0.529,1.253-0.71,2.034-0.519c0.562,0.139,0.909,0.066,0.834-0.695c-0.094-0.955,0.257-1.32,1.358-1.079
		c0.958,0.21,1.914-0.403,2.775-0.812c0.604-0.285,1.572-0.314,1.688-1.308c0.003-0.03,0.069-0.083,0.082-0.076
		c1.251,0.617,2.379-1.23,3.369-0.401c0.754,0.631,1.764,0.543,2.372,1.276c0.095,0.115,0.246,0.266,0.369,0.263
		c1.737-0.031,2.293,1.597,3.137,2.558c0.538,0.61,0.908,2.125,0.387,3.119c-0.442,0.845-0.322,1.594-0.317,2.409
		c0.003,0.737,0.321,1.519-0.28,2.186c-0.068,0.075-0.115,0.255-0.073,0.333c0.939,1.705-0.369,2.798-1.125,4.012
		c-0.237,0.38-0.211,0.734-0.293,1.11c-0.054,0.249,0.285,1.2-0.667,0.592c-0.221-0.143-0.302,0.207-0.302,0.381
		c-0.001,0.508-0.143,0.959-0.521,1.294c-1.648,1.465-2.745,3.639-4.55,4.702C126.039,36.327,124.592,38.294,122.179,38.174z"/>
	<path fill="#C3C3C3" d="M122.179,38.174c0.474,0.921,0.196,1.368-0.827,1.591c-1.322,0.285-2.61,0.73-3.916,1.096
		c-0.561,0.157-0.638,0.545-0.528,1.027c0.328,1.438,0.478,2.896,0.601,4.368c0.161,1.915,2.712,3.595,4.692,3.413
		c1.282-0.116,2.646,0.483,3.857-0.263c1.76-1.084,3.546-2.137,5.334-3.157c1.718-0.979,2.945-2.468,4.457-3.642
		c0.66-0.514,1.252-1.431,1.688-2.248c0.746-1.403,1.995-2.175,3.275-2.872c0.365-0.199,1.49,0.141,1.551,0.401
		c0.185,0.797,0.8,1.176,1.225,1.72c0.752,0.964,0.906,1.908,0.759,3.177c-0.11,0.955-0.062,2.059,0.049,3.088
		c0.054,0.496,0.509,0.554,0.905,0.637c2.098,0.439,3.753-0.376,5.15-1.854c0.355-0.376,0.588-0.874,1.216-0.84
		c0.17,0.009,0.325-0.051,0.362-0.242c0.309-1.598,1.646-2.382,2.699-3.382c0.286-0.272,0.513-0.536,0.419-0.921
		c-0.262-1.082,0.395-1.92,0.703-2.854c0.18-0.546,0.402-0.535,0.878-0.263c0.532,0.303,0.845,1.219,1.774,0.667
		c0.231-0.138,0.93,2.175,0.729,2.62c-1.226,2.716-1.341,5.517-0.534,8.353c0.357,1.259,2.746,2.182,4.177,1.676
		c0.631-0.222,1.245-0.463,1.905-0.625c0.864-0.213,1.731-0.57,1.837-1.729c0.061-0.655,0.921-0.833,1.118-1.334
		c0.427-1.086,1.347-1.752,1.971-2.659c0.246-0.356,0.224-0.758,0.368-1.126c0.232-0.596,0.468-1.192,1.218-1.232
		c0.678-0.036,0.828-0.622,0.805-1c-0.104-1.729,1.141-2.739,1.986-3.952c0.418-0.6,0.857-1.185,1.537-1.596
		c0.607-0.366,1.363-0.858,0.677-1.818c-0.154-0.215,0.066-0.508,0.234-0.63c0.904-0.655,1.2-1.73,1.839-2.562
		c0.398-0.519,0.719-0.932,0.463-1.707c-0.238-0.722,0.614-1.128,0.991-1.658c0.481-0.676,1.108-1.205,0.994-2.196
		c-0.085-0.741,1.006-0.791,1.149-1.337c0.243-0.93,0.74-0.731,1.353-0.562c0.6,0.167,0.945-0.504,1.554-0.497
		c0.604,0.007,0.897,0.052,0.536,0.697c-0.237,0.423-0.283,0.715-0.044,1.265c0.334,0.771-0.437,1.411-1.006,1.915
		c-0.237,0.21-0.41,0.346-0.342,0.66c0.458,2.111-0.986,3.561-1.91,5.136c-0.518,0.884-0.891,1.731-1.071,2.725
		c-0.13,0.719-0.15,1.519-0.832,2.043c-0.519,0.398,0.065,0.85-0.011,1.313c-0.295,1.803-0.59,3.605-0.878,5.408
		c-0.247,1.547-0.417,3.137-0.149,4.721c0.281,1.665,1.65,2.301,2.856,1.114c1.37-1.347,3.264-2.104,4.166-4.027
		c0.437-0.93,1.825-1.312,2.177-2.44c0.438-1.407,1.126-2.743,1.271-4.236c0.055-0.561,0.024-1.278,0.674-1.386
		c0.637-0.105,1.479,0.06,1.789,0.674c0.414,0.824,1,1.535,1.389,2.362c0.117,0.25,0.259,0.527,0.25,0.789
		c-0.019,0.548-0.311,1.223,0.314,1.52c0.762,0.361,1.502,0.76,2.473,0.656c2.104-0.225,4.076-1.083,6.197-1.195
		c0.532-0.027,0.971-0.426,1.309-0.792c1.404-1.521,2.882-2.941,4.562-4.172c1.109-0.812,1.06-2.222,1.146-3.401
		c0.099-1.298,0.717-2.242,1.4-3.216c0.139-0.198,0.35-0.356,0.609-0.32c0.381,0.054,0.266,0.403,0.369,0.641
		c0.271,0.624,0.385,1.384,1.13,1.692c1.039,0.43,1.202,1.328,0.919,2.195c-0.68,2.078-0.718,4.216-0.812,6.354
		c-0.062,1.37,1.137,2.221,2.314,1.5c2.363-1.445,4.82-2.745,6.792-4.804c0.603-0.63,1.106-1.761,2.354-1.679
		c0.193,0.013,0.567-0.328,0.593-0.536c0.204-1.696,1.723-2.373,2.663-3.483c0.518-0.612,1.274-0.81,2.082-0.617
		c0.303,0.071,0.613,0.459,0.375,0.567c-1.351,0.615,0.293,1.491-0.24,2.137c0.768,0.396,0.878,1.726,2.188,1.415
		c0.543-0.129,1.039-0.125,1.147-0.77c0.083-0.485,0.412-0.566,0.808-0.729c1.289-0.531,2.745-0.714,3.809-1.734
		c0.304-0.291,0.521-0.075,0.834,0c1.006,0.242,2.048,0.38,2.863-0.523c0.129-0.146,0.293-0.411,0.453-0.198
		c0.59,0.791,1.832,0.678,2.26,1.668c0.065,0.15,0.231,0.327,0.354,0.177c0.844-1.044,0.852,0.163,0.966,0.428
		c0.484,1.12,0.733,2.354,1.31,3.417c0.756,1.396,0.672,2.977,1.248,4.408c0.742,1.841,2.138,2.728,3.947,2.798
		c1.09,0.043,2.028-0.751,2.812-1.576c1.479-1.564,2.979-3.108,4.47-4.662c0.258-0.27,0.557-0.413,0.936-0.48
		c0.627-0.11,1.074-0.383,0.472-1.062c-0.13-0.146-0.17-0.287-0.066-0.421c0.931-1.212,1.229-2.84,2.546-3.805
		c0.639-0.468,1.227-0.124,1.822,0.008c0.795,0.178,1.536,0.672,2.484,0.301c-0.027,2.325,0.309,4.563,0.104,6.815
		c-0.03,0.338,0.005,0.709,0.285,0.873c1.241,0.723,2.312,1.963,3.968,1.562c0.934-0.228,1.905-0.526,2.787-0.745
		c1.438-0.356,2.434-1.414,3.823-1.73c1.251-0.285,2.172-1.271,3.271-1.892c0.406-0.229,0.866-0.345,1.248-0.627
		c0.146-0.109,0.42-0.047,0.568-0.155c1.484-1.075,3.084-1.873,4.839-2.445c0.569-0.186,1.011-0.91,1.582-1.348
		c1.741-1.333,3.927-1.846,5.632-3.228c0.496-0.404,1.117-0.816,1.862-0.683c0.335,0.062,0.489-0.201,0.729-0.323
		c2.558-1.309,4.727-3.335,7.606-4.059c0.925-0.232,1.39-1.232,2.341-1.558c1.147-0.393,2.233-0.976,3.318-1.53
		c0.472-0.241,0.933-0.188,1.396-0.135c1.054,0.119,1.851-0.214,2.294-1.21c0.411-0.921,0.975-1.473,2.049-0.947
		c0.312,0.153,0.759,0.194,0.853-0.126c0.269-0.914,1.117-0.745,1.707-1.047c1.581-0.814,3.169-1.616,4.755-2.422
		c0.213-0.108,0.42-0.263,0.647-0.308c1.42-0.274,2.822,0.337,4.341-0.167c0.825-0.273,2.046,0.627,3.122,0.065
		c0.212,0.665-0.438,0.905-0.316,1.38c1.538-0.025,2.048-1.064,1.285-2.634c0.744-0.501,1.538-0.417,2.255-0.036
		c0.788,0.419,1.564,0.621,2.435,0.397c0.246-0.062,0.594-0.095,0.513,0.237c-0.231,0.952,0.442,0.661,0.829,0.613
		c1.545-0.193,3.055,0.1,4.581,0.188c1.165,0.067,2.284,0.434,3.462,0.372c0.562-0.028,0.935,0.582,0.863,1.197
		c-0.066,0.58,1.562,1.742,2.3,1.623c0.266-0.043,0.521-0.151,0.745-0.219c0.271,0.29-0.02,0.547,0.044,0.715
		c0.651,1.735-0.6,0.983-1.265,0.979c-0.237-0.001-0.489-0.112-0.712-0.064c-1.045,0.229-1.959,0.392-1.239-1.207
		c0.108-0.241-0.011-0.661-0.355-0.637c-1.561,0.106-3.185-0.733-4.67,0.204c-0.457,0.289-0.844,0.576-1.397,0.719
		c-0.631,0.162-1.091,0.358-1.17-0.537c-0.016-0.174-0.142-0.292-0.335-0.222c-0.153,0.058-0.317,0.182-0.201,0.354
		c0.226,0.33,0.158,0.534-0.221,0.587c-0.272,0.038-0.606,0.025-0.623-0.367c-0.016-0.389-0.218-0.57-0.521-0.387
		c-1.436,0.867-2.996,0.117-4.471,0.398c-0.996,0.189-1.967,0.238-2.909,0.887c-0.579,0.396-1.714,0.104-2.371-0.655
		c-0.138-0.157-0.155-0.543-0.487-0.386c-0.255,0.12-0.367,0.369-0.377,0.691c-0.04,1.342-0.054,1.342-1.355,0.827
		c-0.276-0.108-1.647,0.594-1.62,0.873c0.07,0.695-0.39,0.726-0.873,0.876c-1.075,0.335-2.472,0.75-3.234,0.461
		c-1.435-0.543-1.259,0.242-1.479,0.989c-0.028,0.101-0.385,0.215-0.521,0.159c-1.358-0.559-2.28,0.287-3.293,0.938
		c-0.742,0.478-1.252-0.068-1.73-0.63c-0.223,0.333-0.408,0.611-0.612,0.916c0.393,0.168,1.004-0.122,1.062,0.384
		c0.062,0.529-0.604,0.898-0.914,0.936c-0.912,0.106-1.479,1.054-2.616,0.769c-0.733-0.184-1.374,0.813-2.051,1.297
		c-1.326,0.949-2.789,1.661-4.443,1.824c-0.545,0.054-0.905,0.237-1.33,0.618c-0.78,0.701-1.498,1.759-2.896,1.004
		c-0.526-0.285-1.097,0.243-1.62,0.48c0.049,0.144,0.051,0.243,0.1,0.285c0.361,0.311,1.25-0.172,1.205,0.616
		c-0.031,0.598-0.795,0.688-1.269,0.956c-0.034,0.02-0.079,0.041-0.114,0.034c-1.195-0.239-1.951,0.312-2.5,1.326
		c-0.273,0.505-0.918,0.394-1.371,0.587c-1.801,0.771-3.498,1.808-5.576,1.907c-1.065,0.051-2.371,0.263-2.323,1.961
		c0.019,0.636-0.787,0.565-1.146,0.556c-0.619-0.016-0.994,0.104-1.431,0.571c-0.272,0.292-0.713,0.793-1.321,0.488
		c-0.058-0.028-0.217,0.012-0.222,0.039c-0.302,1.797-1.418,0.083-2.134,0.513c0.279,0.358,0.898,0.446,0.838,1.125
		c-0.869-0.305-1.688,0.23-2.581,0.084c-0.496-0.081-0.909,0.213-1.136,0.704c-0.353,0.768-1.062,1.032-1.75,1.442
		c-1.549,0.925-3.256,0.092-4.768,0.681c-1.417,0.552-2.503-0.136-3.601-0.795c-0.626-0.377-1.539-0.659-0.843-1.775
		c0.199-0.321-0.099-0.771-0.646-0.753c-1.179,0.04-1.76-0.546-1.815-1.71c-0.028-0.637-0.387-1.148-0.758-1.623
		c-0.345-0.441-1.022-0.72-1.33-0.324c-0.563,0.723-1.25,0.748-2.229,0.702c0.813,0.865,0.032,2.018,0.96,2.707
		c0.167,0.124,0.053,0.354-0.1,0.378c-1.055,0.173-1.155,1.572-2.373,1.711c-0.57,0.065-1.021,1.026-1.561,1.546
		c-0.828,0.801-1.632,1.568-2.959,1.573c-0.556,0.002-1.025,0.583-1.771,0.653c-2.912,0.271-4.594-1.229-5.756-3.613
		c-0.239-0.491-0.52-0.816-1.018-1.083c-1.189-0.636-2.089-1.506-1.707-3.061c0.066-0.273,0.068-0.582-0.14-0.802
		c-0.615-0.646-0.71-1.475-0.943-2.281c-0.187-0.645-0.505-1.561-1.567-0.721c-0.307,0.242-0.799,0.335-1.265,0.164
		c-1.126-0.417-2.728,0.007-2.899,0.643c-0.416,1.538-1.936,1.063-2.568,1.945c-0.734,1.021-1.895,1.561-2.764,2.43
		c-0.139,0.141-0.281,0.293-0.373,0.467c-1.334,2.579-3.141,4.956-3.543,7.937c-0.116,0.869-0.516,0.854-1.131,0.633
		c-0.482-0.173-0.924-0.418-1.465-0.479c-0.66-0.074-1.926,0.04-0.716-1.219c0.101-0.104,0.079-0.393,0.026-0.567
		c-0.236-0.789-0.034-1.467,0.361-2.165c0.301-0.531,0.338-1.062,0.185-1.772c-0.16-0.734-0.358-1.869,0.634-2.49
		c0.545-0.341,0.598-0.811,0.322-1.347c-0.16-0.314-0.436-0.578-0.348-0.987c0.072-0.34,0.058-0.655-0.403-0.698
		c-0.358-0.033-0.552,0.114-0.741,0.449c-0.695,1.229-1.455,2.28-3.159,2.334c-0.53,0.017-1.396,0.657-1.733,1.385
		c-0.285,0.614-0.649,1.093-1.268,1.366c-0.633,0.28-1.242,0.527-1.623,1.213c-0.275,0.5-2.402,0.665-2.93,0.285
		c-0.615-0.443-1.245-0.897-1.744-1.458c-0.548-0.616-0.964-1.318-1.763-1.702c-0.388-0.187-0.458-0.662-0.478-1.148
		c-0.031-0.864-0.31-1.188-1.43-1.025c-1.305,0.188-1.412,0.989-1.836,1.852c0.77,0.046,0.783-0.571,1.118-0.971
		c0.424,0.495,0.288,0.979,0.038,1.426c-0.271,0.484-0.729,0.431-1.16,0.247c-0.456-0.193-0.838,0.013-1.266,0.12
		c-1.049,0.261-1.822,1.122-2.924,1.257c-0.736,0.09-0.474,0.786-0.641,1.406c-1.377-1.516-2.333-0.079-3.292,0.433
		c-1.501,0.803-2.869,0.006-4.292,0.006c-0.094,0-0.268-0.146-0.266-0.217c0.047-0.993-0.768-0.834-1.338-1.075
		c-2.279-0.963-3.47,0.311-4.509,2.056c-0.249,0.419-0.315,1.025-0.93,1.183c-0.115,0.029-0.15,0.124-0.114,0.276
		c0.33,1.381-0.01,1.878-1.456,2.213c-0.686,0.158-1.653,0.12-0.746,1.636c-1.377-0.898-2.24-0.351-3.08,0.239
		c-0.72,0.506-1.563,0.403-2.162,0.048c-1.227-0.729-2.439-1.496-2.987-3.03c-0.194-0.543-0.857-1.099-1.367-1.581
		c-0.878-0.831-0.803-2.101-0.373-2.708c0.848-1.197-0.721-1.865-0.294-2.848c0.031-0.071-0.558-0.151-0.557,0.077
		c0,0.953-1.236,1.254-1.111,2.291c0.046,0.379-0.653,0.423-0.809,0.897c-0.514,1.565-2.004,2.569-2.376,4.285
		c-0.197,0.913-1.365,1.256-2.124,1.766c-1.292,0.865-2.243,2.191-3.869,2.643c-0.825,0.229-1.107-0.211-1.264-0.65
		c-0.373-1.038-0.943-1.348-1.684-0.621c-0.469,0.46-0.752,0.391-1.201,0.053c-1.257-0.947-2.36-2.045-3.231-3.351
		c-0.655-0.979-1.682-1.707-1.966-2.949c-0.086-0.381-0.615-0.483-0.759-0.193c-0.782,1.586-2.455,1.545-3.763,2.15
		c-0.799,0.369-1.504,0.893-2.366,1.176c-1.985,0.652-2.95,0.334-3.931-1.551c-0.201-0.388-0.567-0.604-0.893-0.747
		c-1.192-0.528-1.692-1.465-1.858-2.687c-0.084-0.62-0.128-1.374-0.945-1.459c-0.3-0.031-1.431-0.779-0.896,0.625
		c0.181,0.477-0.774,0.362-0.479,0.919c-0.581,0.023-0.161-0.808-0.72-0.649c-0.343,0.097-0.404,0.454-0.495,0.767
		c-0.159,0.551-0.172,0.535-0.795,0.631c-0.325,0.05-0.257,0.32-0.281,0.562c-0.081,0.812-2.187,3.119-2.717,2.813
		c-1.315-0.757-1.395,0.644-2.069,0.94c-0.451,0.199-0.775,0.909-1.376,0.195c-0.125-0.146-0.487,0.048-0.475,0.2
		c0.139,1.771-1.664,1.029-2.301,1.789c-0.104,0.124-0.512,0.067-0.543,0.167c-0.46,1.493-1.688,0.79-2.607,0.927
		c-1.198,0.179-1.177,0.134-1.6-1.098c-0.144-0.417-0.524-0.155-0.767,0.041c-1.375,1.109-3.251,0.597-4.391-0.729
		c-0.851-0.99-1.691-2.055-2.688-2.902c-0.691-0.588-0.72-1.159-0.6-1.892c0.097-0.587,0.085-1.044-0.341-1.632
		c-0.446-0.614-0.059-1.648-0.712-2.375c-0.194-0.216,0.709-0.128,0.573-0.675c-0.193-0.772-0.639-1.42-1.341-1.682
		c-0.438-0.164-0.998-0.11-1.507-0.21c-0.312-0.062-0.909,0.239-0.736,0.65c0.595,1.415-0.691,0.988-1.148,1.116
		c-0.528,0.148-1.415-1.294-1.22-1.858c0.188-0.541,0.339-1.114,0.153-1.646c-0.259-0.738-0.196-1.308,0.44-1.806
		c0.514-0.403,0.043-1.089,0.521-1.628c0.928-1.047,2.029-0.427,2.897-0.307c1.478,0.204,2.433,1.488,3.173,2.726
		c0.486,0.812,1.25,1.333,1.768,2.088c0.22,0.32,0.712,0.537,0.926,0.235c0.458-0.642,1.498-0.856,1.378-1.946
		c-0.081-0.729,1.818-2.437,2.577-2.397c0.303,0.017,0.349,0.279,0.399,0.517C122.134,36.454,121.593,37.316,122.179,38.174z"/>
</g>
</svg>
